<svg xmlns="http://www.w3.org/2000/svg" viewBox="0 0 100 100">
  <path d="M70.03 66.68c.117-.2.19-.4.24-.598.06-.148.106-.296.16-.444.935.21 2.007.22 2.835.257 4.62.21 10.66-.383 14.4-3.446 1.904-1.562 3.968-4.208 3.534-6.86-.05-.407-.156-1.33-.728-1.365-.667-.04-.98 1.117-1.187 1.56-.485 1.04-.937 1.957-1.765 2.77-2.388 2.982-7.496 3.617-10.96 4.41-1.855.424-3.78.574-5.63 1.004.568-2.478.358-4.777-.402-6.897 1.202-.385 2.533-1.282 3.245-1.796 2.54-1.834 4.686-4.526 5.373-7.63.086-.384.293-1.204.346-1.992 6.494.474 11.037-8.837 10.306-15.17.005-.237-.025-.5-.11-.786-1.43-4.782-4.482-8.983-8.772-11.6-1.217-.744-2.376.117-2.26 1.533.347 4.258.432 6.962-.067 10.48-.268-.254-1.83-1.216-2.97-2.906L72.61 20.14c-.426-.997-1.73-1.552-2.502-.61-2.917 3.548-3.977 8.283-3.12 12.8 1.01 5.312 3.866 8.515 8.19 11.623.64.46 1.266.81 1.88 1.077-.362.625-.647 1.316-.853 1.665 0 0-2.17 3.37-2.368 3.608-1.228 1.476-2.52 2.873-3.83 4.272-.093.09-.246.244-.41.426-.667-1.203-1.51-2.338-2.476-3.407 1.088-.735 1.793-1.83 1.902-3.235.14-1.808-1.397-3.505-2.717-4.5-1.613-1.216-4.166-1.695-6.028-.777-.723.357-1.516.97-2.104 1.714-1.25-.696-2.5-1.327-3.703-1.886-.82-.382-1.666-.75-2.52-1.102.264-.552.48-1.15.676-1.78.734-2.396-.723-4.066-2.872-4.845-3.218-1.164-8.323.4-8.834 3.647-1.965-.19-3.865-.14-5.635.23.18-.924.122-2.082.24-2.515.476-3.047 1.164-5.91 2.35-8.774.127-.308.353-.753.572-1.238.332.233.688.458 1.096.66 9.218 4.584 21.468.132 23.74-10.316.244-1.115-.144-2.897-1.69-2.38-2.65.89-5.34 1.66-7.948 2.662-2.423.933-3.347.39-4.045.3.77-1.022 1.507-1.93 1.953-2.224l6.46-4.22c1.15-.752 1.472-3.104-.007-3.674-4.17-1.61-8.197-1.645-12.37-.03-.125.048-.24.116-.348.195-.015.008-.028.01-.043.02-4.403 2.513-11.884 11.813-8.507 17.243-1.02.97-2.034 2.305-2.23 2.668-1.562 2.885-2.407 5.71-2.13 8.986.054.64.28 2.284.874 3.223-1.997.764-3.753 2.045-5.152 3.965-.728-1.368-1.827-2.896-1.935-3.074-1.09-1.753-2.12-3.515-3.126-5.314-1.046-1.866-2.56-4.636-1.407-6.695.55-.97 1.166-1.928 1.487-3.006.394-1.324.147-3.262-1.146-1.4-1.942 2.793-4.676 4.678-3.43 8.473 1.185 3.603 2.772 6.466 5.148 9.38.66.813 2.022 2.55 3.332 3.382-.66 1.27-1.202 2.742-1.595 4.456-.524-.56-1.31-1.387-1.447-1.353-1.508-1.48-3.047-2.95-4.506-4.48-.827-.866-1.625-1.775-2.407-2.68-.752-.87-1.776-1.723-2.297-2.757-.545-1.083.544-2.556-.068-3.685-.54-.99-1.76 1.66-1.88 1.91-.664 1.38-.54 2.668.162 4.002 1.074 2.046 2.812 4.267 4.498 5.85 1.542 1.514 3.053 2.896 4.846 4.114.168.114 1.474.98 2.706 1.576-.147 1.543-.086 3.03.145 4.464l-1.4-.613c-2.248-1.08-4.565-2.086-6.766-3.26-2.62-1.396-5.83-3.073-6.12-6.37-.05-.57-.002-3.325-.76-3.438-.954-.142-1.256 2.68-1.325 3.21-.47 3.58 1.445 6 4.243 7.957 3.232 2.26 6.968 3.858 10.793 4.802.183.044 1.02.25 1.98.414.28.857.63 1.688 1.035 2.494-.747-.048-1.495-.07-2.244-.017-4.508.32-8.932 2.2-11.643 5.892-1.147 1.562-2.433 4.085-1.945 6.08.417 1.714 1.74-.584 2.053-1.104.523-.87.985-1.71 1.633-2.503-.322-.215 4.477-3.584 4.732-3.72 2.056-1.09 4.485-1.654 6.763-2.064.228-.04 1.06-.143 1.996-.294 5.18 7.59 15.69 12.184 25.243 11.728.083.12.163.23.228.324.303.442 1.375 1.51 1.375 2.055 1.148 1.743 2.213 3.784 2.585 5.85.24 1.34.132 2.75-.16 4.07-.06.282-.572 2.758-.894 2.758.295.2-1.582 2.578-.513 2.85.98.246 2.11-1.522 2.587-2.13 1.638-2.094 2.38-4.665 2.23-7.31-.115-3.13-1.83-6.02-3.987-8.202-.087-.088-.297-.304-.573-.57.58-.096 1.157-.207 1.725-.344 1.07 1.268 2.817 2.323 3.866 3.082 2.328 1.698 5.055 2.646 7.76 3.525 2.65.86 5.614 1.574 8.413 1.394 1.588-.104 3.175-.512 4.442-1.514 0-.204 1.252-1.244 1.416-1.49.324-.438.878-1.126.838-1.717-.063-.945-2.986 1.243-3.263 1.388-1.14.595-2.41.658-3.667.53-5.3-.533-10.786-2.67-15.514-5.058-.594-.27-1.16-.597-1.72-.93 1.77-.665 3.42-1.568 4.914-2.724 1.935.936 5.51 1.766 6.216 1.914 3.462.724 7.718 1.44 11.174.35 2.343-.738 3.688-2.71 4.894-4.745 1.166-2.068-.72-1.725-1.942-.748-.865.69-1.596 1.498-2.514 2.13.113 1.29-14.43-.254-15.36-.38-.15-.02-.4-.057-.686-.095 1.018-1.038 1.937-2.206 2.713-3.545zm5.557-39.525c-.112-.178-.112-.226 0 0zM71.15 24.62l2.08 4.878c.91 2.133 4.117 4.098 5.77 5.666.938.89 2.035-.014 2.235-1.02.787-3.97.95-7.186.79-10.857 2.138 1.88 3.764 4.26 4.628 7.043.23 2.25-.228 4.6-1.198 6.552-.315-.426-.71-.772-1.245-.957-1.225-.418-2.253.472-1.223 1.587.333.505.72.975 1.097 1.45-.357.41-.74.776-1.157 1.09-.128-.173-.275-.334-.466-.47-.962-.686-2.197-.155-1.666 1.11.01.053.05.19.1.358-1.635.438-3.514.137-5.525-1.31-4.983-3.58-7.034-9.793-4.22-15.12zM46.17 11.126c2.266-.863 4.412-1.144 6.58-.895l-2.53 1.652c-1.895 1.237-3.385 4.056-4.808 5.805-.586.723-1.158 3.148.36 3.348 2.268.298 4.835 1.134 7.047.393l6.237-2.09c-2.975 5.188-9.448 5.903-15.355 4.92-8.314-1.387-1.768-10.466 2.468-13.133zm16.025 34.672c.454-.393 1.252.31 1.596.57.906.682 1.45 1.97.758 2.747-.967-.815-1.998-1.58-3.06-2.296.11-.376.39-.75.707-1.02zm-17.178-7.543c.655-.306 1.563-.23 2.253-.108.77.137 1.527.43 1.578 1.293.02.363-.152.76-.283 1.1-1.16-.387-2.33-.727-3.494-1.005-.226-.51-.4-1.12-.053-1.28zm-16.743 15.96c-2.028-14.816 14.15-12 22.615-8.488 7.105 2.95 19.904 9.685 16.54 19.15-.374.633-.804 1.197-1.263 1.728-.08-.82-.297-1.558-.743-2.367-.263-.478-.892-1.338-1.52-1.3-1.033.062-.56 1.396-.433 1.958.248 1.168.554 2.403.616 3.618-.64.46-1.317.863-2.032 1.21.123-1.037.028-1.848-.49-2.76-.802-1.415-2.218-1.04-1.982.583.11 1 .335 2.01.364 3.02-1.035.335-2.114.58-3.217.75.148-.257.267-.53.326-.8.19-.855.254-1.642-.198-2.432-.66-1.152-2.145-1.112-2.006.414-.07.907.045 1.824-.002 2.73-.004.094.012.195.036.297-.806.063-1.616.102-2.428.1.107-.147.194-.29.245-.408.307-.722.265-1.41-.11-2.1-.51-.937-1.735-.685-1.88.373-.2.58-.37 1.387-.39 2.05-.683-.045-1.355-.11-2.017-.192.206-.637.154-1.256-.183-1.868-.512-.932-1.745-.688-1.88.375-.112.326-.217.728-.292 1.133-.434-.08-.864-.166-1.282-.258-8.252-1.833-15.225-7.973-16.394-16.517z"/><path d="M48.292 49.954c-.643-.867-1.948-1.02-2.984-.83-.1.018-1.784.612-1.954.737-.52.38-1.002.768-1.46 1.22-.895.988-1.552 1.98-1.895 3.29-.284 1.08-.46 2.35-.233 3.47.397 1.952 1.558-1.267 1.758-1.73.883-2.033 2.198-4.34 4.46-5.09.483-.16 3.082-.016 2.307-1.066zM50.58 62.93c1.46-.076 3.217-1.332 4.222-2.288 1.62-1.54 2.713-4.28 1.775-6.455-.31-.716-.787-1.366-1.478-1.746-.377-.205-1.235-.405-1.182.307.06.765.543 1.156.763 2.16.15.684-.58 2.73-.657 2.9-.56 1.262-1.678 2.326-2.714 3.217-.337.29-1.958 1.973-.73 1.907zM40.307 44.817c-.12-.553-1.07-.786-1.643-.874-.438-.067-1.52-.007-2.462.493-.8.425-1.505 1.19-1.833 2.048-.227.59-.45 1.284-.392 1.928.123 1.386 1.39-.39 1.666-.75.784-.966 1.572-2.066 2.85-1.994.398.022 1.963.01 1.813-.85z"/>
</svg>
